<?xml version="1.0" encoding="UTF-8"?>
<?xml-stylesheet href="https://cdnjs.cloudflare.com/ajax/libs/font-awesome/6.6.0/css/all.min.css" type="text/css"?>
<svg aria-roledescription="er" role="graphics-document document" viewBox="0 0 167.75 319.0625" style="max-width: 100%;" xmlns="http://www.w3.org/2000/svg" width="100%" id="graph-div" height="100%" xmlns:xlink="http://www.w3.org/1999/xlink"><style>#graph-div{font-family:"trebuchet ms",verdana,arial,sans-serif;font-size:16px;fill:#333;}#graph-div .error-icon{fill:#552222;}#graph-div .error-text{fill:#552222;stroke:#552222;}#graph-div .edge-thickness-normal{stroke-width:1px;}#graph-div .edge-thickness-thick{stroke-width:3.5px;}#graph-div .edge-pattern-solid{stroke-dasharray:0;}#graph-div .edge-thickness-invisible{stroke-width:0;fill:none;}#graph-div .edge-pattern-dashed{stroke-dasharray:3;}#graph-div .edge-pattern-dotted{stroke-dasharray:2;}#graph-div .marker{fill:#333333;stroke:#333333;}#graph-div .marker.cross{stroke:#333333;}#graph-div svg{font-family:"trebuchet ms",verdana,arial,sans-serif;font-size:16px;}#graph-div p{margin:0;}#graph-div .entityBox{fill:#ECECFF;stroke:#9370DB;}#graph-div .attributeBoxOdd{fill:#ffffff;stroke:#9370DB;}#graph-div .attributeBoxEven{fill:#f2f2f2;stroke:#9370DB;}#graph-div .relationshipLabelBox{fill:hsl(80, 100%, 96.2745098039%);opacity:0.7;background-color:hsl(80, 100%, 96.2745098039%);}#graph-div .relationshipLabelBox rect{opacity:0.5;}#graph-div .relationshipLine{stroke:#333333;}#graph-div .entityTitleText{text-anchor:middle;font-size:18px;fill:#333;}#graph-div #MD_PARENT_START{fill:#f5f5f5!important;stroke:#333333!important;stroke-width:1;}#graph-div #MD_PARENT_END{fill:#f5f5f5!important;stroke:#333333!important;stroke-width:1;}#graph-div :root{--mermaid-font-family:"trebuchet ms",verdana,arial,sans-serif;}</style><g></g><defs><marker orient="auto" markerHeight="240" markerWidth="190" refY="7" refX="0" id="MD_PARENT_START"><path d="M 18,7 L9,13 L1,7 L9,1 Z"></path></marker></defs><defs><marker orient="auto" markerHeight="28" markerWidth="20" refY="7" refX="19" id="MD_PARENT_END"><path d="M 18,7 L9,13 L1,7 L9,1 Z"></path></marker></defs><defs><marker orient="auto" markerHeight="18" markerWidth="18" refY="9" refX="0" id="ONLY_ONE_START"><path d="M9,0 L9,18 M15,0 L15,18" fill="none" stroke="gray"></path></marker></defs><defs><marker orient="auto" markerHeight="18" markerWidth="18" refY="9" refX="18" id="ONLY_ONE_END"><path d="M3,0 L3,18 M9,0 L9,18" fill="none" stroke="gray"></path></marker></defs><defs><marker orient="auto" markerHeight="18" markerWidth="30" refY="9" refX="0" id="ZERO_OR_ONE_START"><circle r="6" cy="9" cx="21" fill="white" stroke="gray"></circle><path d="M9,0 L9,18" fill="none" stroke="gray"></path></marker></defs><defs><marker orient="auto" markerHeight="18" markerWidth="30" refY="9" refX="30" id="ZERO_OR_ONE_END"><circle r="6" cy="9" cx="9" fill="white" stroke="gray"></circle><path d="M21,0 L21,18" fill="none" stroke="gray"></path></marker></defs><defs><marker orient="auto" markerHeight="36" markerWidth="45" refY="18" refX="18" id="ONE_OR_MORE_START"><path d="M0,18 Q 18,0 36,18 Q 18,36 0,18 M42,9 L42,27" fill="none" stroke="gray"></path></marker></defs><defs><marker orient="auto" markerHeight="36" markerWidth="45" refY="18" refX="27" id="ONE_OR_MORE_END"><path d="M3,9 L3,27 M9,18 Q27,0 45,18 Q27,36 9,18" fill="none" stroke="gray"></path></marker></defs><defs><marker orient="auto" markerHeight="36" markerWidth="57" refY="18" refX="18" id="ZERO_OR_MORE_START"><circle r="6" cy="18" cx="48" fill="white" stroke="gray"></circle><path d="M0,18 Q18,0 36,18 Q18,36 0,18" fill="none" stroke="gray"></path></marker></defs><defs><marker orient="auto" markerHeight="36" markerWidth="57" refY="18" refX="39" id="ZERO_OR_MORE_END"><circle r="6" cy="18" cx="9" fill="white" stroke="gray"></circle><path d="M21,18 Q39,0 57,18 Q39,36 21,18" fill="none" stroke="gray"></path></marker></defs><path style="stroke: gray; fill: none;" marker-start="url(#ONLY_ONE_START)" marker-end="url(#ZERO_OR_MORE_END)" d="M83.875,109.531L83.875,117.865C83.875,126.198,83.875,142.865,83.875,159.531C83.875,176.198,83.875,192.865,83.875,201.198L83.875,209.531" class="er relationshipLine"></path><g transform="translate(20,20 )" id="entity-session-3ef71acd-69e8-5422-bd55-547cff916828"><rect height="89.53125" width="127.75" y="0" x="0" class="er entityBox"></rect><text style="dominant-baseline: middle; text-anchor: middle; font-size: 12px;" transform="translate(63.875,11.9765625)" y="0" x="0" id="text-entity-session-3ef71acd-69e8-5422-bd55-547cff916828" class="er entityLabel">session</text><rect height="21.859375" width="49.046875" y="23.953125" x="0" class="er attributeBoxOdd"></rect><text style="dominant-baseline: middle; font-size: 10.2px;" transform="translate(5,34.8828125)" y="0" x="0" id="text-entity-session-3ef71acd-69e8-5422-bd55-547cff916828-attr-1-type" class="er entityLabel">INTEGER</text><rect height="21.859375" width="57.875" y="23.953125" x="49.046875" class="er attributeBoxOdd"></rect><text style="dominant-baseline: middle; font-size: 10.2px;" transform="translate(54.046875,34.8828125)" y="0" x="0" id="text-entity-session-3ef71acd-69e8-5422-bd55-547cff916828-attr-1-name" class="er entityLabel">id</text><rect height="21.859375" width="20.828125" y="23.953125" x="106.921875" class="er attributeBoxOdd"></rect><text style="dominant-baseline: middle; font-size: 10.2px;" transform="translate(111.921875,34.8828125)" y="0" x="0" id="text-entity-session-3ef71acd-69e8-5422-bd55-547cff916828-attr-1-key" class="er entityLabel">pk</text><rect height="21.859375" width="49.046875" y="45.8125" x="0" class="er attributeBoxEven"></rect><text style="dominant-baseline: middle; font-size: 10.2px;" transform="translate(5,56.7421875)" y="0" x="0" id="text-entity-session-3ef71acd-69e8-5422-bd55-547cff916828-attr-2-type" class="er entityLabel">TEXT</text><rect height="21.859375" width="57.875" y="45.8125" x="49.046875" class="er attributeBoxEven"></rect><text style="dominant-baseline: middle; font-size: 10.2px;" transform="translate(54.046875,56.7421875)" y="0" x="0" id="text-entity-session-3ef71acd-69e8-5422-bd55-547cff916828-attr-2-name" class="er entityLabel">start_time</text><rect height="21.859375" width="20.828125" y="45.8125" x="106.921875" class="er attributeBoxEven"></rect><text style="dominant-baseline: middle; font-size: 10.2px;" transform="translate(111.921875,56.7421875)" y="0" x="0" id="text-entity-session-3ef71acd-69e8-5422-bd55-547cff916828-attr-2-key" class="er entityLabel"></text><rect height="21.859375" width="49.046875" y="67.671875" x="0" class="er attributeBoxOdd"></rect><text style="dominant-baseline: middle; font-size: 10.2px;" transform="translate(5,78.6015625)" y="0" x="0" id="text-entity-session-3ef71acd-69e8-5422-bd55-547cff916828-attr-3-type" class="er entityLabel">TEXT</text><rect height="21.859375" width="57.875" y="67.671875" x="49.046875" class="er attributeBoxOdd"></rect><text style="dominant-baseline: middle; font-size: 10.2px;" transform="translate(54.046875,78.6015625)" y="0" x="0" id="text-entity-session-3ef71acd-69e8-5422-bd55-547cff916828-attr-3-name" class="er entityLabel">end_time</text><rect height="21.859375" width="20.828125" y="67.671875" x="106.921875" class="er attributeBoxOdd"></rect><text style="dominant-baseline: middle; font-size: 10.2px;" transform="translate(111.921875,78.6015625)" y="0" x="0" id="text-entity-session-3ef71acd-69e8-5422-bd55-547cff916828-attr-3-key" class="er entityLabel"></text></g><g transform="translate(21.0078125,209.53125 )" id="entity-game-8583509a-3fdb-53ed-9d51-913d2ee0b32a"><rect height="89.53125" width="125.734375" y="0" x="0" class="er entityBox"></rect><text style="dominant-baseline: middle; text-anchor: middle; font-size: 12px;" transform="translate(62.8671875,11.9765625)" y="0" x="0" id="text-entity-game-8583509a-3fdb-53ed-9d51-913d2ee0b32a" class="er entityLabel">game</text><rect height="21.859375" width="49.046875" y="23.953125" x="0" class="er attributeBoxOdd"></rect><text style="dominant-baseline: middle; font-size: 10.2px;" transform="translate(5,34.8828125)" y="0" x="0" id="text-entity-game-8583509a-3fdb-53ed-9d51-913d2ee0b32a-attr-1-type" class="er entityLabel">INTEGER</text><rect height="21.859375" width="55.859375" y="23.953125" x="49.046875" class="er attributeBoxOdd"></rect><text style="dominant-baseline: middle; font-size: 10.2px;" transform="translate(54.046875,34.8828125)" y="0" x="0" id="text-entity-game-8583509a-3fdb-53ed-9d51-913d2ee0b32a-attr-1-name" class="er entityLabel">id</text><rect height="21.859375" width="20.828125" y="23.953125" x="104.90625" class="er attributeBoxOdd"></rect><text style="dominant-baseline: middle; font-size: 10.2px;" transform="translate(109.90625,34.8828125)" y="0" x="0" id="text-entity-game-8583509a-3fdb-53ed-9d51-913d2ee0b32a-attr-1-key" class="er entityLabel">pk</text><rect height="21.859375" width="49.046875" y="45.8125" x="0" class="er attributeBoxEven"></rect><text style="dominant-baseline: middle; font-size: 10.2px;" transform="translate(5,56.7421875)" y="0" x="0" id="text-entity-game-8583509a-3fdb-53ed-9d51-913d2ee0b32a-attr-2-type" class="er entityLabel">INTEGER</text><rect height="21.859375" width="55.859375" y="45.8125" x="49.046875" class="er attributeBoxEven"></rect><text style="dominant-baseline: middle; font-size: 10.2px;" transform="translate(54.046875,56.7421875)" y="0" x="0" id="text-entity-game-8583509a-3fdb-53ed-9d51-913d2ee0b32a-attr-2-name" class="er entityLabel">session_id</text><rect height="21.859375" width="20.828125" y="45.8125" x="104.90625" class="er attributeBoxEven"></rect><text style="dominant-baseline: middle; font-size: 10.2px;" transform="translate(109.90625,56.7421875)" y="0" x="0" id="text-entity-game-8583509a-3fdb-53ed-9d51-913d2ee0b32a-attr-2-key" class="er entityLabel">fk</text><rect height="21.859375" width="49.046875" y="67.671875" x="0" class="er attributeBoxOdd"></rect><text style="dominant-baseline: middle; font-size: 10.2px;" transform="translate(5,78.6015625)" y="0" x="0" id="text-entity-game-8583509a-3fdb-53ed-9d51-913d2ee0b32a-attr-3-type" class="er entityLabel">TEXT</text><rect height="21.859375" width="55.859375" y="67.671875" x="49.046875" class="er attributeBoxOdd"></rect><text style="dominant-baseline: middle; font-size: 10.2px;" transform="translate(54.046875,78.6015625)" y="0" x="0" id="text-entity-game-8583509a-3fdb-53ed-9d51-913d2ee0b32a-attr-3-name" class="er entityLabel">at</text><rect height="21.859375" width="20.828125" y="67.671875" x="104.90625" class="er attributeBoxOdd"></rect><text style="dominant-baseline: middle; font-size: 10.2px;" transform="translate(109.90625,78.6015625)" y="0" x="0" id="text-entity-game-8583509a-3fdb-53ed-9d51-913d2ee0b32a-attr-3-key" class="er entityLabel"></text></g><rect height="13.953125" width="56.1875" y="152.554443359375" x="55.78125" class="er relationshipLabelBox"></rect><text style="text-anchor: middle; dominant-baseline: middle; font-size: 12px;" y="159.531005859375" x="83.875" id="rel20" class="er relationshipLabel">consists of</text></svg>